<svg width="440" height="106" viewBox="0 0 440 106" fill="none" xmlns="http://www.w3.org/2000/svg">
<g clip-path="url(#clip0_1997_8502)">
<path d="M439.83 0H1V105.89H439.83V0Z" fill="white"/>
<path fill-rule="evenodd" clip-rule="evenodd" d="M104.77 43.32C105.22 42.86 105.84 42.59 106.48 42.59L107.9 42.57L146.82 42.1C148.16 42.08 149.27 43.16 149.28 44.5L149.57 68.82C149.59 70.16 148.51 71.27 147.17 71.28L108.25 71.75L106.83 71.77C106.18 71.77 105.57 72.04 105.12 72.5L101.72 75.98C101.27 76.44 100.65 76.71 100.01 76.71L92.2999 76.8C91.6499 76.8 91.0299 76.56 90.5699 76.11L87.0899 72.71C86.6299 72.26 86.0099 72.01 85.3599 72.02L83.9399 72.04L79.0799 72.1C77.7399 72.12 76.6299 71.04 76.6199 69.7L76.3299 45.38C76.3099 44.04 77.3899 42.93 78.7299 42.92L83.5899 42.86L85.0099 42.84C85.6599 42.84 86.2799 43.08 86.7399 43.53L90.2199 46.93C90.6799 47.38 91.2999 47.63 91.9499 47.62L99.6599 47.53C100.3 47.53 100.92 47.26 101.37 46.8L104.77 43.32Z" fill="#FAA91E"/>
<path d="M170.39 15.12C169.93 14.98 169.47 14.84 169.02 14.72" stroke="#FFE2B2" stroke-width="2.85" stroke-miterlimit="10" stroke-linecap="round"/>
<path d="M163.6 13.45C135.41 8.28998 122.87 29.22 118.86 38.2" stroke="#FFE2B2" stroke-width="2.85" stroke-miterlimit="10" stroke-linecap="round"/>
<path d="M117.81 40.76C117.49 41.61 117.34 42.1 117.34 42.1" stroke="#FFE2B2" stroke-width="2.85" stroke-miterlimit="10" stroke-linecap="round"/>
<path d="M169.95 14.99C168.44 15.74 167.16 17.8 166.59 19.34C168.84 17.77 171.46 16.63 174.24 16.42C172.13 14.63 170.84 12.06 169.87 9.5C169.45 11.21 169.18 13.36 169.95 14.99Z" fill="#FFE2B2"/>
<path fill-rule="evenodd" clip-rule="evenodd" d="M36.53 47.06C44.3 44.19 45.91 36.66 47.97 33.77C51.59 28.7 56.86 38.01 49.36 46.86C45.07 51.92 51.14 54.06 55.74 54.16C61.79 54.29 72.33 55.24 77.15 55.64C82.6 56.09 81.73 63.16 76.87 62.89C71.78 62.61 62.01 62.38 58.85 62.11C58.34 62.07 57.64 62.08 57.62 62.5C57.59 63.13 58.38 63.12 59.53 63.23C65.96 63.84 64.85 71.96 58.55 70.87C58.03 70.78 56.6 70.42 56.44 70.78C56.24 71.21 56.48 71.53 57.01 71.65C62.79 72.94 61.28 79.46 55.83 78.18C54.98 77.98 54.5 77.93 54.37 78.34C54.26 78.69 54.34 78.9 55.2 79.18C58.79 80.35 56.88 85.92 52.76 84.72C45.5 82.62 39.34 81.98 34.52 80.28C23.15 76.25 22.01 52.41 36.53 47.06Z" fill="#D59D7A"/>
<path fill-rule="evenodd" clip-rule="evenodd" d="M185.91 25.46C186.3 24.95 186.88 24.61 187.52 24.52L188.93 24.33L256.41 15.13C257.74 14.95 258.97 15.88 259.15 17.21L262.44 41.31C262.62 42.64 261.69 43.87 260.36 44.05L192.88 53.25L191.47 53.44C190.83 53.53 190.25 53.86 189.86 54.38L186.92 58.25C186.53 58.76 185.95 59.1 185.31 59.19L177.67 60.23C177.03 60.32 176.38 60.15 175.87 59.76L172 56.82C171.49 56.43 170.84 56.26 170.2 56.35L168.79 56.54L163.97 57.2C162.64 57.38 161.41 56.45 161.23 55.12L157.94 31.02C157.76 29.69 158.69 28.46 160.02 28.28L164.84 27.62L166.25 27.43C166.89 27.34 167.54 27.51 168.05 27.9L171.92 30.84C172.43 31.23 173.08 31.4 173.72 31.31L181.36 30.27C182 30.18 182.58 29.85 182.97 29.33L185.91 25.46Z" fill="#23B689"/>
<path fill-rule="evenodd" clip-rule="evenodd" d="M190.86 66.5C191.31 66.04 191.93 65.77 192.57 65.77L193.99 65.75L232.91 65.28C234.25 65.26 235.36 66.34 235.37 67.68L235.66 92C235.68 93.34 234.6 94.45 233.26 94.46L194.34 94.93L192.92 94.95C192.27 94.95 191.66 95.22 191.21 95.68L187.81 99.16C187.36 99.62 186.74 99.89 186.1 99.89L178.39 99.98C177.74 99.98 177.12 99.74 176.66 99.29L173.18 95.89C172.72 95.44 172.1 95.19 171.45 95.2L170.03 95.22L165.17 95.28C163.83 95.3 162.72 94.22 162.71 92.88L162.42 68.56C162.4 67.22 163.48 66.11 164.82 66.1L169.68 66.04L171.1 66.02C171.75 66.02 172.37 66.26 172.83 66.71L176.31 70.11C176.77 70.56 177.39 70.81 178.04 70.8L185.75 70.71C186.39 70.71 187.01 70.44 187.46 69.98L190.86 66.5Z" fill="#7E69AD"/>
<path d="M337.2 34.65C332.41 26.95 338.66 26.58 341.33 28.66C345.33 31.78 346.29 36.31 348.16 37.24C351.82 39.04 355.67 33.01 354.83 29.96C353.85 26.36 351.79 22.3 350.5 21.67C348.78 20.82 346.59 22.57 343.4 24.37C340.63 25.94 336.14 23.28 339.89 20.53C345.08 16.72 350.01 14.41 352.33 15.29C354.16 15.99 355.98 17.44 357.78 20.42C360.09 24.26 360.8 26.19 361.4 26.55C362.76 27.36 364.03 18.7 364.2 10.61C364.32 5.00004 370.53 5.32004 370.31 11.41C369.9 22.87 366.45 31.37 367.39 31.71C368.04 31.95 371.63 26.11 374.22 16.61C375.39 12.32 381.5 13.65 379.49 19.49C376.83 27.23 372.32 35.39 373.34 36.15C374.05 36.68 378.79 29.44 380.95 26.56C384.35 22.04 387.92 26.11 385.62 29.26C376.63 41.58 375.52 42 372.38 50.04C367.93 61.44 347.31 60.07 343.92 47.62C341.59 39.08 339.76 38.77 337.18 34.63L337.2 34.65Z" fill="#CB855A"/>
<path fill-rule="evenodd" clip-rule="evenodd" d="M338.51 32.92C333.72 25.22 339.97 24.85 342.64 26.93C346.64 30.05 347.6 34.58 349.47 35.51C353.13 37.31 355.88 32.32 355.05 29.27C354.07 25.67 352.65 21.56 351.37 20.93C349.65 20.08 347.91 20.84 344.73 22.64C341.96 24.21 337.47 21.55 341.22 18.8C346.41 14.99 351.34 12.68 353.66 13.56C355.49 14.26 357.31 15.71 359.11 18.69C361.42 22.53 360.81 22.75 361.42 23.11C362.78 23.92 361.79 15.59 362.54 7.49001C362.7 5.81001 368.65 3.79001 368.44 9.88001C368.31 13.41 367.2 16.5 366.74 19.34C365.71 25.71 365.25 30.27 367.39 31.84C369.49 28.11 371.41 23.09 373.14 16.76C374.31 12.47 380.01 13.24 378.72 17.27C377.42 21.31 375.78 22.8 374.43 26.51C373.18 29.96 371.87 35.02 373.41 36.12C376.52 31.43 378.79 28.13 380.24 26.21C383.64 21.69 386.81 25.32 384.51 28.48C375.52 40.8 372.12 39.83 368.98 47.87C364.53 59.27 346.94 57.88 343.55 45.42C341.22 36.88 341.13 37.06 338.56 32.92H338.51Z" fill="#D59D7A"/>
<path fill-rule="evenodd" clip-rule="evenodd" d="M262.44 27.67L263.67 5.24003C263.74 4.00003 264.81 3.05003 266.06 3.12003L271.92 3.44003C272.52 3.47003 273.08 3.74003 273.49 4.18003L276.52 7.53003C276.92 7.97003 277.48 8.24003 278.09 8.27003L285.27 8.66003C285.87 8.69003 286.46 8.49003 286.91 8.09003L290.29 5.09003C290.74 4.69003 291.33 4.49003 291.93 4.52003L348.48 7.62003C349.73 7.69003 350.69 8.75003 350.62 9.99003L349.39 32.42C349.32 33.66 348.25 34.61 347 34.54L290.45 31.44C289.85 31.41 289.26 31.61 288.81 32.01L285.43 35.01C284.98 35.41 284.39 35.61 283.79 35.58L276.61 35.19C276.01 35.16 275.45 34.89 275.04 34.44L272.01 31.09C271.61 30.65 271.04 30.38 270.44 30.35L264.58 30.03C263.33 29.96 262.37 28.9 262.44 27.66V27.67Z" fill="#628EC9"/>
<g opacity="0.1">
<path d="M350.52 21.68C348.79 20.82 346.29 22.6 343.11 24.35C340.35 25.87 335.83 23.21 339.56 20.54C344.72 16.83 349.88 14.52 352.21 15.41L350.51 21.69L350.52 21.68Z" fill="black"/>
</g>
<path fill-rule="evenodd" clip-rule="evenodd" d="M350.97 20.78C348.88 20.13 345.45 23.3 342.28 25.05C339.52 26.57 334.66 23.01 338.39 20.34C343.55 16.63 351.19 12.82 353.52 13.71L350.98 20.78H350.97Z" fill="#D59D7A"/>
<path d="M260.62 61.69C261.12 61.77 261.61 61.85 262.1 61.92" stroke="#CEDFF2" stroke-width="2.99" stroke-miterlimit="10" stroke-linecap="round"/>
<path d="M267.88 62.4601C297.83 63.8301 307.88 40.3701 310.77 30.5001" stroke="#CEDFF2" stroke-width="2.99" stroke-miterlimit="10" stroke-linecap="round"/>
<path d="M311.51 27.69C311.72 26.76 311.81 26.23 311.81 26.23" stroke="#CEDFF2" stroke-width="2.99" stroke-miterlimit="10" stroke-linecap="round"/>
<path d="M261.09 61.75C262.55 60.76 263.59 58.4401 263.96 56.7701C261.85 58.7101 259.3 60.2701 256.44 60.8801C258.88 62.4401 260.58 64.9201 261.94 67.4401C262.14 65.6101 262.11 63.34 261.09 61.76V61.75Z" fill="#CEDFF2"/>
</g>
<defs>
<clipPath id="clip0_1997_8502">
<rect width="438.83" height="105.89" fill="white" transform="translate(1)"/>
</clipPath>
</defs>
</svg>
