<svg width="440" height="106" viewBox="0 0 440 106" fill="none" xmlns="http://www.w3.org/2000/svg">
<g clip-path="url(#clip0_1997_8523)">
<path d="M439.83 0H1V105.89H439.83V0Z" fill="white"/>
<path fill-rule="evenodd" clip-rule="evenodd" d="M196.73 41.3301C197.41 40.6501 198.33 40.2601 199.29 40.2601H201.42L259.49 40.0801C261.49 40.0801 263.12 41.6901 263.13 43.7001L263.24 79.9901C263.24 81.9901 261.63 83.6201 259.62 83.6301L201.55 83.8001H199.42C198.46 83.8001 197.54 84.1901 196.86 84.8801L191.74 90.0301C191.06 90.7101 190.14 91.1001 189.18 91.1001L177.67 91.1301C176.71 91.1301 175.78 90.7501 175.1 90.0801L169.95 84.9601C169.27 84.2801 168.34 83.9001 167.38 83.9001H165.25L157.99 83.9301C155.99 83.9301 154.36 82.3201 154.35 80.3101L154.24 44.0201C154.24 42.0201 155.85 40.3901 157.86 40.3801L165.12 40.3601H167.25C168.21 40.3601 169.14 40.7301 169.82 41.4101L174.97 46.5301C175.65 47.2101 176.58 47.5901 177.54 47.5901L189.05 47.5601C190.01 47.5601 190.93 47.1701 191.61 46.4901L196.73 41.3401V41.3301Z" fill="#F57F20"/>
<path d="M249.75 49.5527L204.571 49.8208C202.34 49.834 200.542 51.6535 200.555 53.8847L200.661 71.6843C200.674 73.9155 202.494 75.7135 204.725 75.7003L249.904 75.4322C252.135 75.419 253.933 73.5995 253.92 71.3683L253.814 53.5686C253.801 51.3374 251.982 49.5394 249.75 49.5527Z" stroke="#D15500" stroke-width="1.65" stroke-miterlimit="10"/>
<path fill-rule="evenodd" clip-rule="evenodd" d="M240.51 57.8801L247.79 57.8401L244.18 63.0001L240.57 68.1601L236.9 63.0401L233.23 57.9301L240.51 57.8801Z" fill="#FFE5CC"/>
<path d="M314.241 14.6481L293.183 10.5626C282.313 8.45354 271.79 15.5561 269.681 26.4267C267.572 37.2973 274.675 47.8195 285.546 49.9285L306.603 54.014C317.473 56.1231 327.996 49.0205 330.105 38.1499C332.214 27.2793 325.111 16.7572 314.241 14.6481Z" fill="#F57F20"/>
<path d="M370.152 47.0133L349.022 50.7049C338.114 52.6106 330.816 62.9983 332.722 73.9064C334.627 84.8144 345.015 92.1123 355.923 90.2066L377.053 86.515C387.961 84.6093 395.259 74.2216 393.353 63.3135C391.448 52.4054 381.06 45.1076 370.152 47.0133Z" fill="#F57F20"/>
<path d="M41.0685 84.4162L45.0503 93.0415L108.75 63.635L104.768 55.0097L41.0685 84.4162Z" fill="#2B8EB8"/>
<path d="M93.3199 71.1598L91.7299 67.6798L89.1999 62.1298C88.4399 60.4598 86.4699 59.7298 84.8099 60.4898L37.0399 82.2498C35.3699 83.0098 34.6399 84.9798 35.3999 86.6398L38.9299 94.3898L39.5199 95.6798C40.2799 97.3498 42.2499 98.0798 43.9099 97.3198L91.6799 75.5598C93.3499 74.7998 94.0799 72.8298 93.3199 71.1698V71.1598Z" fill="#F47F20"/>
<path d="M93.3199 71.1597L91.7299 67.6797C88.0699 72.2197 83.0799 74.4697 77.9899 77.0697C70.1999 81.0597 62.3399 84.8997 54.5199 88.7997C49.8899 91.1097 44.8499 93.8297 39.6299 94.3597C39.4099 94.3797 39.1799 94.3897 38.9299 94.3797L39.5199 95.6697C40.2799 97.3397 42.2499 98.0697 43.9099 97.3097L91.6799 75.5497C93.3499 74.7897 94.0799 72.8197 93.3199 71.1597Z" fill="#D96F27"/>
<path d="M105.39 58.9299C113.21 75.8799 133.29 83.2699 150.24 75.4499C167.19 67.6299 174.58 47.5499 166.76 30.5999C158.94 13.6499 138.86 6.25994 121.91 14.0799C104.96 21.8999 97.57 41.9799 105.39 58.9299ZM124.17 18.9699C138.42 12.3899 155.29 18.6099 161.87 32.8599C168.45 47.1099 162.23 63.9799 147.98 70.5599C133.73 77.1399 116.86 70.9199 110.28 56.6699C103.7 42.4199 109.92 25.5499 124.17 18.9699Z" fill="#2B8EB8"/>
<path opacity="0.2" d="M154.572 66.3248C166.479 56.1076 167.85 38.1717 157.633 26.2638C147.416 14.3559 129.48 12.9852 117.572 23.2024C105.664 33.4195 104.293 51.3554 114.511 63.2634C124.728 75.1713 142.664 76.5419 154.572 66.3248Z" fill="#2B8EB8"/>
</g>
<defs>
<clipPath id="clip0_1997_8523">
<rect width="438.83" height="105.89" fill="white" transform="translate(1)"/>
</clipPath>
</defs>
</svg>
