<svg width="440" height="106" viewBox="0 0 440 106" fill="none" xmlns="http://www.w3.org/2000/svg">
<g clip-path="url(#clip0_1997_8565)">
<path d="M439.83 0H1V105.89H439.83V0Z" fill="white"/>
<path fill-rule="evenodd" clip-rule="evenodd" d="M66.0801 9.93004C66.6101 9.30004 67.3701 8.91004 68.1901 8.84004L70.0001 8.69004L119.52 4.47004C121.23 4.32004 122.73 5.59004 122.88 7.30004L125.52 38.25C125.67 39.96 124.4 41.46 122.69 41.61L73.1701 45.83L71.3601 45.98C70.5401 46.05 69.7801 46.44 69.2501 47.07L65.2501 51.82C64.7201 52.45 63.9601 52.84 63.1401 52.91L53.3201 53.75C52.5001 53.82 51.6801 53.56 51.0501 53.03L46.3001 49.03C45.6701 48.5 44.8601 48.24 44.0301 48.31L42.2201 48.46L36.0301 48.99C34.3201 49.14 32.8201 47.87 32.6701 46.16L30.0301 15.21C29.8801 13.5 31.1501 12 32.8601 11.85L39.0501 11.32L40.8601 11.17C41.6801 11.1 42.5001 11.36 43.1301 11.89L47.8801 15.89C48.5101 16.42 49.3201 16.68 50.1501 16.61L59.9701 15.77C60.7901 15.7 61.5501 15.31 62.0801 14.68L66.0801 9.93004Z" fill="#AE5AA2"/>
<path fill-rule="evenodd" clip-rule="evenodd" d="M337.05 61.4201C337.62 60.8401 338.4 60.5001 339.21 60.4901L341.01 60.4701L390.17 59.8701C391.87 59.8501 393.26 61.2101 393.28 62.9101L393.65 93.6301C393.67 95.3301 392.31 96.7201 390.62 96.7401L341.46 97.3401L339.66 97.3601C338.85 97.3701 338.07 97.7001 337.5 98.2901L333.21 102.69C332.64 103.27 331.86 103.61 331.05 103.62L321.31 103.74C320.5 103.75 319.71 103.44 319.13 102.87L314.73 98.5801C314.15 98.0101 313.36 97.7001 312.55 97.7101L310.75 97.7301L304.6 97.8001C302.9 97.8201 301.51 96.4601 301.49 94.7701L301.12 64.0401C301.1 62.3401 302.46 60.9501 304.16 60.9301L310.31 60.8601L312.11 60.8401C312.93 60.8301 313.71 61.1401 314.29 61.7101L318.69 66.0001C319.27 66.5701 320.06 66.8801 320.87 66.8701L330.61 66.7501C331.42 66.7501 332.2 66.4101 332.77 65.8201L337.06 61.4201H337.05Z" fill="#7E69AD"/>
<path d="M373.09 63.9601H358.85C351.499 63.9601 345.54 69.9192 345.54 77.2701C345.54 84.621 351.499 90.5801 358.85 90.5801H373.09C380.441 90.5801 386.4 84.621 386.4 77.2701C386.4 69.9192 380.441 63.9601 373.09 63.9601Z" fill="white"/>
<path fill-rule="evenodd" clip-rule="evenodd" d="M273.53 11.3501C274.16 10.8301 274.97 10.5801 275.78 10.6601L277.57 10.8301L326.52 15.4601C328.21 15.6201 329.45 17.1201 329.29 18.8101L326.4 49.4001C326.24 51.0901 324.74 52.3301 323.05 52.1701L274.1 47.5401L272.31 47.3701C271.5 47.2901 270.69 47.5401 270.06 48.0601L265.32 51.9801C264.69 52.5001 263.88 52.7501 263.07 52.6701L253.37 51.7501C252.56 51.6701 251.81 51.2801 251.29 50.6501L247.37 45.9101C246.85 45.2801 246.1 44.8901 245.29 44.8101L243.5 44.6401L237.38 44.0601C235.69 43.9001 234.45 42.4001 234.61 40.7101L237.5 10.1201C237.66 8.43008 239.16 7.19008 240.85 7.35008L246.97 7.93008L248.76 8.10008C249.57 8.18008 250.32 8.57008 250.84 9.20008L254.76 13.9401C255.28 14.5701 256.03 14.9601 256.84 15.0401L266.54 15.9601C267.35 16.0401 268.16 15.7901 268.79 15.2701L273.53 11.3501Z" fill="#7E69AD"/>
<path d="M318.267 22.1679L278.437 18.3817C276.469 18.1946 274.721 19.6386 274.534 21.6069L273.043 37.2962C272.856 39.2645 274.3 41.0118 276.268 41.1989L316.099 44.985C318.067 45.1721 319.814 43.7282 320.001 41.7599L321.493 26.0706C321.68 24.1023 320.236 22.355 318.267 22.1679Z" stroke="#5E429A" stroke-width="1.46" stroke-miterlimit="10"/>
<path fill-rule="evenodd" clip-rule="evenodd" d="M309.38 28.6801L315.8 29.2901L312.16 33.5201L308.52 37.7401L305.74 32.9101L302.97 28.0701L309.38 28.6801Z" fill="#C4B2D7"/>
<path d="M103.137 11.3715L89.2141 12.5162C82.0255 13.1072 76.6771 19.4138 77.2681 26.6024C77.8591 33.791 84.1657 39.1394 91.3543 38.5484L105.277 37.4037C112.466 36.8127 117.814 30.5061 117.223 23.3175C116.632 16.1289 110.326 10.7805 103.137 11.3715Z" fill="white"/>
<path fill-rule="evenodd" clip-rule="evenodd" d="M142.07 53.45C142.65 52.87 143.44 52.54 144.26 52.53H146.08L195.78 52.38C197.49 52.38 198.89 53.76 198.9 55.48L198.99 86.54C198.99 88.26 197.61 89.65 195.89 89.66L146.19 89.81H144.37C143.55 89.81 142.76 90.15 142.18 90.73L137.8 95.14C137.22 95.72 136.43 96.05 135.61 96.06L125.76 96.09C124.94 96.09 124.15 95.77 123.56 95.19L119.15 90.81C118.57 90.23 117.77 89.9 116.95 89.91H115.13L108.92 89.93C107.2 89.93 105.81 88.55 105.8 86.83L105.71 55.77C105.71 54.05 107.09 52.66 108.81 52.65L115.02 52.63H116.84C117.66 52.63 118.45 52.95 119.04 53.53L123.45 57.91C124.03 58.49 124.83 58.82 125.65 58.81L135.5 58.78C136.32 58.78 137.11 58.45 137.69 57.86L142.07 53.45Z" fill="#AE5AA2"/>
<path d="M187.456 60.4821L148.797 60.7115C146.886 60.7229 145.346 62.2811 145.358 64.192L145.448 79.4217C145.459 81.3326 147.018 82.8725 148.929 82.8611L187.588 82.6317C189.499 82.6204 191.039 81.0621 191.027 79.1513L190.937 63.9215C190.926 62.0106 189.367 60.4708 187.456 60.4821Z" stroke="#9A338E" stroke-width="1.41" stroke-miterlimit="10"/>
<path fill-rule="evenodd" clip-rule="evenodd" d="M179.55 67.62L185.77 67.58L182.69 72L179.6 76.41L176.46 72.03L173.32 67.65L179.55 67.62Z" fill="#EECDE2"/>
<path d="M180.61 46.23C180.53 45.73 180.44 45.24 180.34 44.76" stroke="#EECDE1" stroke-width="2.99" stroke-miterlimit="10" stroke-linecap="round"/>
<path d="M178.98 39.11C170.56 10.33 145.11 8.44003 134.84 8.91003" stroke="#EECDE1" stroke-width="2.99" stroke-miterlimit="10" stroke-linecap="round"/>
<path d="M131.94 9.13C130.99 9.23 130.46 9.32 130.46 9.32" stroke="#EECDE1" stroke-width="2.99" stroke-miterlimit="10" stroke-linecap="round"/>
<path d="M180.52 45.77C179.11 44.71 176.58 44.48 174.88 44.68C177.4 46.04 179.7 47.96 181.2 50.46C181.88 47.64 183.68 45.23 185.62 43.13C183.83 43.54 181.69 44.3 180.52 45.78V45.77Z" fill="#EECDE1"/>
<path d="M242.47 56.34C242.57 56.83 242.68 57.32 242.79 57.8" stroke="#EDE4F1" stroke-width="2.99" stroke-miterlimit="10" stroke-linecap="round"/>
<path d="M244.37 63.39C253.88 91.82 279.38 92.74 289.63 91.88" stroke="#EDE4F1" stroke-width="2.99" stroke-miterlimit="10" stroke-linecap="round"/>
<path d="M292.51 91.5601C293.45 91.4201 293.98 91.3101 293.98 91.3101" stroke="#EDE4F1" stroke-width="2.99" stroke-miterlimit="10" stroke-linecap="round"/>
<path d="M242.58 56.8C244.03 57.8 246.57 57.94 248.26 57.68C245.69 56.41 243.31 54.59 241.72 52.15C241.15 54.99 239.44 57.47 237.58 59.65C239.36 59.17 241.46 58.33 242.58 56.81V56.8Z" fill="#EDE4F1"/>
</g>
<defs>
<clipPath id="clip0_1997_8565">
<rect width="438.83" height="105.89" fill="white" transform="translate(1)"/>
</clipPath>
</defs>
</svg>
