<svg width="440" height="106" viewBox="0 0 440 106" fill="none" xmlns="http://www.w3.org/2000/svg">
<g clip-path="url(#clip0_1997_8649)">
<path d="M439.83 0H1V105.89H439.83V0Z" fill="white"/>
<path d="M163.24 47.7103L163.03 13.5703C163.03 13.5703 175.33 1.11035 200.17 0.960345C225 0.810345 237.46 13.1103 237.46 13.1103L279.77 12.8503C281.51 12.8403 282.86 14.2403 282.87 15.9103L283.06 46.9003C283.07 48.6404 281.67 49.9903 280 50.0003L201.75 50.4803C200.95 50.4803 200.15 50.8203 199.55 51.4303L195.16 55.8803C194.56 56.4903 193.83 56.8303 192.96 56.8303L183.12 56.8903C182.32 56.8903 181.51 56.5703 180.91 55.9703L176.46 51.5803C175.85 50.9804 175.12 50.6503 174.25 50.6603L166.22 50.7103C164.68 50.8503 163.27 49.4604 163.26 47.7203L163.24 47.7103Z" fill="#FDBE10"/>
<path fill-rule="evenodd" clip-rule="evenodd" d="M201.18 55.8099C201.82 55.1699 202.69 54.7999 203.6 54.7999H205.6L260.35 54.6299C262.24 54.6299 263.78 56.1499 263.78 58.0399L263.88 92.2599C263.88 94.1499 262.36 95.6899 260.47 95.6899L205.72 95.8499H203.72C202.81 95.8499 201.94 96.2199 201.3 96.8699L196.47 101.72C195.83 102.36 194.96 102.73 194.05 102.73L183.2 102.76C182.29 102.76 181.42 102.4 180.78 101.77L175.93 96.9399C175.29 96.2999 174.41 95.9399 173.51 95.9399H171.51L164.67 95.9699C162.78 95.9699 161.24 94.4499 161.24 92.5599L161.14 58.3399C161.14 56.4499 162.66 54.9099 164.55 54.9099L171.39 54.8899H173.39C174.3 54.8899 175.17 55.2399 175.81 55.8799L180.66 60.7099C181.3 61.3499 182.17 61.7099 183.08 61.7099L193.93 61.6799C194.84 61.6799 195.71 61.3199 196.35 60.6699L201.18 55.8199V55.8099Z" fill="#EC9D22"/>
<path d="M141.18 18.5703H40.4499C38.3402 18.5703 36.6299 20.2806 36.6299 22.3903V59.8703C36.6299 61.98 38.3402 63.6903 40.4499 63.6903H141.18C143.29 63.6903 145 61.98 145 59.8703V22.3903C145 20.2806 143.29 18.5703 141.18 18.5703Z" fill="#FFE3B3"/>
<path fill-rule="evenodd" clip-rule="evenodd" d="M103.44 55.5305C103.44 55.5305 103.5 55.6205 103.53 55.6605C111.48 67.4505 123.4 70.0105 122.28 64.6505C121.49 60.8805 120.86 57.5405 121.54 55.5305H124.88C132.71 55.5305 139.06 49.2005 139.06 41.3805C139.06 33.5605 132.71 27.2305 124.88 27.2305H57.6099C49.7799 27.2305 43.4299 33.5605 43.4299 41.3805C43.4299 49.2005 49.7799 55.5305 57.6099 55.5305H103.44Z" fill="#FFD996" stroke="white" stroke-width="2" stroke-miterlimit="10"/>
<path d="M291 89.49L406.83 89.49C409.254 89.49 411.22 87.5245 411.22 85.1V42C411.22 39.5755 409.254 37.61 406.83 37.61L291 37.61C288.575 37.61 286.61 39.5755 286.61 42V85.1C286.61 87.5245 288.575 89.49 291 89.49Z" fill="#FFE3B3"/>
<path fill-rule="evenodd" clip-rule="evenodd" d="M334.39 80.1103C334.39 80.1103 334.32 80.2103 334.29 80.2603C325.14 93.8103 311.44 96.7603 312.73 90.6003C313.64 86.2603 314.37 82.4303 313.58 80.1103H309.74C300.74 80.1103 293.44 72.8303 293.44 63.8403C293.44 54.8503 300.74 47.5703 309.74 47.5703H387.1C396.1 47.5703 403.4 54.8503 403.4 63.8403C403.4 72.8303 396.1 80.1103 387.1 80.1103H334.4H334.39Z" fill="#FFD996" stroke="white" stroke-width="2.3" stroke-miterlimit="10"/>
</g>
<defs>
<clipPath id="clip0_1997_8649">
<rect width="438.83" height="105.89" fill="white" transform="translate(1)"/>
</clipPath>
</defs>
</svg>
